<svg xmlns="http://www.w3.org/2000/svg" version="1.1" xmlns:xlink="http://www.w3.org/1999/xlink"
    width="512" height="512" x="0" y="0" viewBox="0 0 512 512"
    style="enable-background:new 0 0 512 512" xml:space="preserve" class="">
  <g>
    <path fill="#5f9ef9" d="M320.88 497H191.12l10.18-31.29 9.7-29.79h90z" opacity="1" data-original="#aec9d6" class=""/>
    <path fill="#3d7fec" d="M320.88 497H191.12l10.18-31.29h63.57c11.43 0 19.65-10.97 16.43-21.93l-2.3-7.86h22z" opacity="1" data-original="#8fb2bc" class=""/>
    <path fill="#4a9df9" d="M512 130.66v253.09l-27.44 2.14L256 403.75l-256-20V130.66l256-20 228.56 17.86z" opacity="1" data-original="#4fe8bc" class=""/>
    <path fill="#1e79f7" d="M512 130.66v253.09l-27.44 2.14V128.52z" opacity="1" data-original="#17c6a5" class=""/>
    <path fill="#1c4dba" d="M512 383.75v46.87c0 7.07-5.73 12.8-12.8 12.8H12.8c-7.07 0-12.8-5.73-12.8-12.8v-46.87zM512 83.79v46.87H0V83.79c0-7.07 5.73-12.8 12.8-12.8h486.4c7.07 0 12.8 5.73 12.8 12.8z" opacity="1" data-original="#466175" class=""/>
    <g fill="#2d4859">
      <path d="M512 83.79v46.87h-27.44V70.99h14.64c7.07 0 12.8 5.73 12.8 12.8zM484.56 383.75H512v46.87c0 7.07-5.73 12.8-12.8 12.8H12.8c-7.07 0-12.8-5.73-12.8-12.8v-17.04h463.9c11.41 0 20.66-9.25 20.66-20.66z" fill="#153586" opacity="1" data-original="#2d4859" class=""/>
    </g>
    <path fill="#1c4dba" d="M361 500.55c0 6.32-5.13 11.45-11.46 11.45H162.46c-3.16 0-6.03-1.28-8.1-3.36a11.371 11.371 0 0 1-3.36-8.09c0-1.26.13-2.48.37-3.67 1.69-8.48 9.19-14.87 18.17-14.87h172.92c5.12 0 9.76 2.07 13.11 5.43s5.43 7.99 5.43 13.11z" opacity="1" data-original="#466175" class=""/>
    <path fill="#153586" d="M355.57 487.44c3.35 3.36 5.43 7.99 5.43 13.11 0 6.32-5.13 11.45-11.46 11.45H162.46c-3.16 0-6.03-1.28-8.1-3.36a11.371 11.371 0 0 1-3.36-8.09c0-1.26.13-2.48.37-3.67h175.67c6.33 0 11.46-5.13 11.46-11.45 0-1.17-.11-2.31-.32-3.42h4.28c5.12 0 9.76 2.07 13.11 5.43z" opacity="1" data-original="#2d4859" class=""/>
    <path fill="#bfdffd" d="M448.505 7.5v300.96c0 4.14-3.36 7.5-7.5 7.5h-370c-4.15 0-7.5-3.36-7.5-7.5V7.5c0-4.14 3.35-7.5 7.5-7.5h370c4.14 0 7.5 3.36 7.5 7.5z" opacity="1" data-original="#d9f9f8" class=""/>
    <path fill="#a0cffd" d="M448.505 7.5v300.96c0 4.14-3.36 7.5-7.5 7.5h-370c-4.15 0-7.5-3.36-7.5-7.5v-18.5h337.43c11.32 0 20.49-9.17 20.49-20.48V0h19.58c4.14 0 7.5 3.36 7.5 7.5z" opacity="1" data-original="#c1eaf4" class=""/>
    <path fill="#4a9df9" d="m167.209 52.238-26.03 26.03-10.363-10.363A7.5 7.5 0 1 0 120.21 78.51l15.667 15.667a7.497 7.497 0 0 0 10.606.001l31.333-31.333a7.5 7.5 0 0 0-10.607-10.607z" opacity="1" data-original="#4fe8bc" class=""/>
    <path fill="#5f9ef9" d="M222.512 65.65h163.975c4.142 0 7.5-3.357 7.5-7.5s-3.358-7.5-7.5-7.5H222.512c-4.142 0-7.5 3.357-7.5 7.5s3.358 7.5 7.5 7.5zM222.512 95.767H361.19c4.142 0 7.5-3.357 7.5-7.5s-3.358-7.5-7.5-7.5H222.512c-4.142 0-7.5 3.357-7.5 7.5s3.358 7.5 7.5 7.5z" opacity="1" data-original="#aec9d6" class=""/>
    <path fill="#4a9df9" d="m167.209 137.011-26.03 26.03-10.363-10.363a7.5 7.5 0 1 0-10.606 10.605l15.667 15.667a7.497 7.497 0 0 0 10.606.001l31.333-31.333a7.5 7.5 0 0 0-10.607-10.607z" opacity="1" data-original="#4fe8bc" class=""/>
    <path fill="#5f9ef9" d="M386.487 135.423H222.512c-4.142 0-7.5 3.357-7.5 7.5s3.358 7.5 7.5 7.5h163.975c4.142 0 7.5-3.357 7.5-7.5s-3.357-7.5-7.5-7.5zM222.512 180.539H361.19c4.142 0 7.5-3.357 7.5-7.5s-3.358-7.5-7.5-7.5H222.512c-4.142 0-7.5 3.357-7.5 7.5s3.358 7.5 7.5 7.5z" opacity="1" data-original="#aec9d6" class=""/>
    <path fill="#4a9df9" d="m167.209 221.783-26.03 26.03-10.363-10.363a7.5 7.5 0 1 0-10.606 10.605l15.667 15.667a7.497 7.497 0 0 0 10.606.001l31.333-31.333a7.5 7.5 0 0 0-10.607-10.607z" opacity="1" data-original="#4fe8bc" class=""/>
    <g fill="#aec9d6">
      <path d="M386.487 220.195H222.512c-4.142 0-7.5 3.357-7.5 7.5s3.358 7.5 7.5 7.5h163.975c4.142 0 7.5-3.357 7.5-7.5s-3.357-7.5-7.5-7.5zM361.19 250.311H222.512c-4.142 0-7.5 3.357-7.5 7.5s3.358 7.5 7.5 7.5H361.19c4.142 0 7.5-3.357 7.5-7.5s-3.358-7.5-7.5-7.5z" fill="#5f9ef9" opacity="1" data-original="#aec9d6" class=""/>
    </g>
  </g>
</svg>