<svg xmlns="http://www.w3.org/2000/svg" version="1.1" xmlns:xlink="http://www.w3.org/1999/xlink"
    width="512" height="512" x="0" y="0" viewBox="0 0 64 64"
    style="enable-background:new 0 0 512 512" xml:space="preserve" fill-rule="evenodd" class=""><g><path fill="#66a5f8" d="M49 60.994H15c-3.314 0-6-2.692-6-6.012v-2.939a23.065 23.065 0 0 1 6.737-16.296 22.984 22.984 0 0 1 8.017-5.218C27.19 29.206 32 28.997 32 28.997s4.81.21 8.246 1.532a22.984 22.984 0 0 1 8.017 5.218A23.065 23.065 0 0 1 55 52.043v2.939c0 3.32-2.686 6.012-6 6.012z" opacity="1" data-original="#caeaff" class=""/><circle cx="959.5" cy="21.5" r="10.5" fill="#4593f8" transform="translate(-1338.71 -12.714) scale(1.429)" opacity="1" data-original="#96d6ff" class=""/><path fill="#1e5bb8" d="M18.43 29.852a26.04 26.04 0 0 0-4.81 3.797 2.99 2.99 0 0 0 0 4.247 2.996 2.996 0 0 0 4.24 0 19.939 19.939 0 0 1 5.67-3.98c2.52 1.353 5.41 2.12 8.47 2.12s5.95-.767 8.47-2.12A20.036 20.036 0 0 1 52 52.052v2.937a3 3 0 0 1-3 3.003H15a3 3 0 0 1-3-3.003v-2.936c0-2.4.43-4.756 1.25-6.963.58-1.555-.22-3.284-1.77-3.86s-3.28.216-3.86 1.77A26.133 26.133 0 0 0 6 52.052v2.936c0 4.976 4.03 9.009 9 9.009h34c4.97 0 9-4.033 9-9.01v-2.935a26.06 26.06 0 0 0-7.61-18.403 26.441 26.441 0 0 0-4.82-3.797A17.95 17.95 0 0 0 50 18.018C50 8.074 41.93 0 32 0S14 8.074 14 18.018a17.95 17.95 0 0 0 4.43 11.834zM32 6.006c6.62 0 12 5.382 12 12.012S38.62 30.03 32 30.03s-12-5.382-12-12.012S25.38 6.006 32 6.006z" opacity="1" data-original="#128ddd" class=""/></g></svg>