<svg xmlns="http://www.w3.org/2000/svg" style="display: none;">

    <symbol id="icon-new-course" viewBox="0 0 24 24">
        <path
            d="M12.75 9C12.75 8.58579 12.4142 8.25 12 8.25C11.5858 8.25 11.25 8.58579 11.25 9L11.25 11.25H9C8.58579 11.25 8.25 11.5858 8.25 12C8.25 12.4142 8.58579 12.75 9 12.75H11.25V15C11.25 15.4142 11.5858 15.75 12 15.75C12.4142 15.75 12.75 15.4142 12.75 15L12.75 12.75H15C15.4142 12.75 15.75 12.4142 15.75 12C15.75 11.5858 15.4142 11.25 15 11.25H12.75V9Z"
            fill="currentColor"></path>
        <path
            d="M12 1.25C6.06294 1.25 1.25 6.06294 1.25 12C1.25 17.9371 6.06294 22.75 12 22.75C17.9371 22.75 22.75 17.9371 22.75 12C22.75 6.06294 17.9371 1.25 12 1.25ZM2.75 12C2.75 6.89137 6.89137 2.75 12 2.75C17.1086 2.75 21.25 6.89137 21.25 12C21.25 17.1086 17.1086 21.25 12 21.25C6.89137 21.25 2.75 17.1086 2.75 12Z"
            fill="currentColor"></path>
    </symbol>

    <symbol id="icon-logout" viewBox="0 0 24 24">
        <path
            d="M12 3.25C12.4142 3.25 12.75 3.58579 12.75 4C12.75 4.41421 12.4142 4.75 12 4.75C7.99594 4.75 4.75 7.99594 4.75 12C4.75 16.0041 7.99594 19.25 12 19.25C12.4142 19.25 12.75 19.5858 12.75 20C12.75 20.4142 12.4142 20.75 12 20.75C7.16751 20.75 3.25 16.8325 3.25 12C3.25 7.16751 7.16751 3.25 12 3.25Z"
            fill="currentColor"></path>
        <path
            d="M16.4697 9.53033C16.1768 9.23744 16.1768 8.76256 16.4697 8.46967C16.7626 8.17678 17.2374 8.17678 17.5303 8.46967L20.5303 11.4697C20.8232 11.7626 20.8232 12.2374 20.5303 12.5303L17.5303 15.5303C17.2374 15.8232 16.7626 15.8232 16.4697 15.5303C16.1768 15.2374 16.1768 14.7626 16.4697 14.4697L18.1893 12.75H10C9.58579 12.75 9.25 12.4142 9.25 12C9.25 11.5858 9.58579 11.25 10 11.25H18.1893L16.4697 9.53033Z"
            fill="currentColor"></path>
    </symbol>

    <symbol id="icon-profile" viewBox="0 0 20 20" fill="currentColor">
        <path fill-rule="evenodd"
            d="M10 2a1 1 0 00-1 1v1a1 1 0 002 0V3a1 1 0 00-1-1zM4 4h3a3 3 0 006 0h3a2 2 0 012 2v9a2 2 0 01-2 2H4a2 2 0 01-2-2V6a2 2 0 012-2zm2.5 7a1.5 1.5 0 100-3 1.5 1.5 0 000 3zm2.45 4a2.5 2.5 0 10-4.9 0h4.9zM12 9a1 1 0 100 2h3a1 1 0 100-2h-3zm-1 4a1 1 0 011-1h2a1 1 0 110 2h-2a1 1 0 01-1-1z"
            clip-rule="evenodd"></path>
    </symbol>

    <symbol id="icon-my-courses-1" viewBox="0 0 20 20" fill="currentColor">
        <path fill-rule="evenodd"
            d="M4 4a2 2 0 012-2h4.586A2 2 0 0112 2.586L15.414 6A2 2 0 0116 7.414V16a2 2 0 01-2 2H6a2 2 0 01-2-2V4zm2 6a1 1 0 011-1h6a1 1 0 110 2H7a1 1 0 01-1-1zm1 3a1 1 0 100 2h6a1 1 0 100-2H7z"
            clip-rule="evenodd"></path>
    </symbol>

    <symbol id="icon-users" viewBox="0 0 20 20" fill="currentColor">
        <path
            d="M10.394 2.08a1 1 0 00-.788 0l-7 3a1 1 0 000 1.84L5.25 8.051a.999.999 0 01.356-.257l4-1.714a1 1 0 11.788 1.838L7.667 9.088l1.94.831a1 1 0 00.787 0l7-3a1 1 0 000-1.838l-7-3zM3.31 9.397L5 10.12v4.102a8.969 8.969 0 00-1.05-.174 1 1 0 01-.89-.89 11.115 11.115 0 01.25-3.762zM9.3 16.573A9.026 9.026 0 007 14.935v-3.957l1.818.78a3 3 0 002.364 0l5.508-2.361a11.026 11.026 0 01.25 3.762 1 1 0 01-.89.89 8.968 8.968 0 00-5.35 2.524 1 1 0 01-1.4 0zM6 18a1 1 0 001-1v-2.065a8.935 8.935 0 00-2-.712V17a1 1 0 001 1z">
        </path>
    </symbol>

    <symbol id="icon-courses" viewBox="0 0 20 20" fill="currentColor">
        <path fill-rule="evenodd"
            d="M4 4a2 2 0 012-2h4.586A2 2 0 0112 2.586L15.414 6A2 2 0 0116 7.414V16a2 2 0 01-2 2H6a2 2 0
        01-2-2V4zm2 6a1 1 0 011-1h6a1 1 0 110 2H7a1 1 0 01-1-1zm1 3a1 1 0 100 2h6a1 1 0 100-2H7z"
            clip-rule="evenodd"></path>
    </symbol>

    <symbol id="icon-dropdownmenu" viewBox="0 0 20 20" fill="currentColor">
        <path fill-rule="evenodd"
            d="M5.293 7.293a1 1 0 011.414 0L10 10.586l3.293-3.293a1 1 0 111.414 1.414l-4 4a1 1 0 01-1.414 0l-4-4a1 1 0 010-1.414z"
            clip-rule="evenodd"></path>
    </symbol>

    <symbol id="icon-my-courses-2" viewBox="0 0 24 24" fill="currentColor">
        <path
            d="M6 8C6 4.68629 8.68629 2 12 2C15.3137 2 18 4.68629 18 8C18 11.3137 15.3137 14 12 14C8.68629 14 6 11.3137 6 8Z"
            fill="currentColor" />
        <path
            d="M5.43094 16.9025C7.05587 16.2213 9.2233 16 12 16C14.771 16 16.9351 16.2204 18.5586 16.8981C20.3012 17.6255 21.3708 18.8613 21.941 20.6587C22.1528 21.3267 21.6518 22 20.9592 22H3.03459C2.34482 22 1.84679 21.3297 2.0569 20.6654C2.62537 18.8681 3.69119 17.6318 5.43094 16.9025Z"
            fill="currentColor" />
    </symbol>

    <symbol id="icon-all-courses" viewBox="0 0 24 24" fill="currentColor">
        <path
            d="M5 9.5C5 7.01472 7.01472 5 9.5 5C11.9853 5 14 7.01472 14 9.5C14 11.9853 11.9853 14 9.5 14C7.01472 14 5 11.9853 5 9.5Z"
            fill="currentColor" />
        <path
            d="M14.3675 12.0632C14.322 12.1494 14.3413 12.2569 14.4196 12.3149C15.0012 12.7454 15.7209 13 16.5 13C18.433 13 20 11.433 20 9.5C20 7.567 18.433 6 16.5 6C15.7209 6 15.0012 6.2546 14.4196 6.68513C14.3413 6.74313 14.322 6.85058 14.3675 6.93679C14.7714 7.70219 15 8.5744 15 9.5C15 10.4256 14.7714 11.2978 14.3675 12.0632Z"
            fill="currentColor" />
        <path
            d="M4.64115 15.6993C5.87351 15.1644 7.49045 15 9.49995 15C11.5112 15 13.1293 15.1647 14.3621 15.7008C15.705 16.2847 16.5212 17.2793 16.949 18.6836C17.1495 19.3418 16.6551 20 15.9738 20H3.02801C2.34589 20 1.85045 19.3408 2.05157 18.6814C2.47994 17.2769 3.29738 16.2826 4.64115 15.6993Z"
            fill="currentColor" />
        <path
            d="M14.8185 14.0364C14.4045 14.0621 14.3802 14.6183 14.7606 14.7837V14.7837C15.803 15.237 16.5879 15.9043 17.1508 16.756C17.6127 17.4549 18.33 18 19.1677 18H20.9483C21.6555 18 22.1715 17.2973 21.9227 16.6108C21.9084 16.5713 21.8935 16.5321 21.8781 16.4932C21.5357 15.6286 20.9488 14.9921 20.0798 14.5864C19.2639 14.2055 18.2425 14.0483 17.0392 14.0008L17.0194 14H16.9997C16.2909 14 15.5506 13.9909 14.8185 14.0364Z"
            fill="currentColor" />
    </symbol>

    <symbol id="icon-edit" viewBox="0 0 24 24" fill="none">
        <path d="M11 2H9C4 2 2 4 2 9V15C2 20 4 22 9 22H15C20 22 22 20 22 15V13"
            stroke="currentColor"
            stroke-width="1.5" stroke-linecap="round" stroke-linejoin="round" />
        <path
            d="M16.04 3.02001L8.16 10.9C7.86 11.2 7.56 11.79 7.5 12.22L7.07 15.23C6.91 16.32 7.68 17.08 8.77 16.93L11.78 16.5C12.2 16.44 12.79 16.14 13.1 15.84L20.98 7.96001C22.34 6.60001 22.98 5.02001 20.98 3.02001C18.98 1.02001 17.4 1.66001 16.04 3.02001Z"
            stroke="currentColor" stroke-width="1.5" stroke-miterlimit="10" stroke-linecap="round"
            stroke-linejoin="round" />
        <path d="M14.91 4.1499C15.58 6.5399 17.45 8.4099 19.85 9.0899" stroke="currentColor"
            stroke-width="1.5" stroke-miterlimit="10" stroke-linecap="round" stroke-linejoin="round" />
    </symbol>

    <symbol id="icon-cancel" viewBox="0 0 24 24" fill="none">
        <path
            d="M10.2801 20.25H17.0001C19.7601 20.25 22.0001 18.01 22.0001 15.25V8.75C22.0001 5.99 19.7601 3.75 17.0001 3.75H10.2801C8.87005 3.75 7.53005 4.34 6.58005 5.39L3.05005 9.27C1.64005 10.82 1.64005 13.18 3.05005 14.73L6.58005 18.61C7.53005 19.66 8.87005 20.25 10.2801 20.25Z"
            stroke="currentColor" stroke-width="1.5" stroke-linecap="round" stroke-linejoin="round" />
        <path d="M16.0001 14.47L11.0601 9.53003" stroke="currentColor" stroke-width="1.5"
            stroke-linecap="round" />
        <path d="M11.0601 14.47L16.0001 9.53003" stroke="currentColor" stroke-width="1.5"
            stroke-linecap="round" />
    </symbol>

    <symbol id="icon-add-user" viewBox="0 0 24 24" fill="none" xmlns="http://www.w3.org/2000/svg">
        <circle cx="10" cy="8" r="4" stroke="currentColor" stroke-width="2" stroke-linecap="round"></circle>
        <path d="M15.7956 20.4471C15.4537 19.1713 14.7004 18.0439 13.6526 17.2399C12.6047 16.4358 11.3208 16 10 16C8.6792 16 7.3953 16.4358 6.34743 17.2399C5.29957 18.0439 4.5463 19.1713 4.20445 20.4471" stroke="currentColor" stroke-width="2" stroke-linecap="round"></path>
        <path d="M19 10L19 16" stroke="currentColor" stroke-width="2" stroke-linecap="round"></path>
        <path d="M22 13L16 13" stroke="currentColor" stroke-width="2" stroke-linecap="round"></path>
    </symbol>

    <symbol id="icon-save" fill="none">
        <path d="M15 20V15H9V20M4 12V18C4 19.1046 4.89543 20 6 20H18C19.1046 20 20 19.1046 20 18V16M4 8V6C4 4.89543 4.89543 4 6 4H14.1716C14.702 4 15.2107 4.21071 15.5858 4.58579L19.4142 8.41421C19.7893 8.78929 20 9.29799 20 9.82843V12" stroke="currentColor" stroke-width="1.5" stroke-linecap="round" stroke-linejoin="round" />
    </symbol>

    <symbol id="icon-delete" fill="none" viewBox="0 0 24 24">
        <line id="secondary" x1="18" y1="15" x2="21" y2="18" style="fill: none; stroke: currentColor; stroke-linecap: round; stroke-linejoin: round; stroke-width: 2;"/>
        <line id="secondary-2" data-name="secondary" x1="21" y1="15" x2="18" y2="18" style="fill: none; stroke: currentColor; stroke-linecap: round; stroke-linejoin: round; stroke-width: 2;"/>
        <circle id="primary" cx="11" cy="8" r="5" style="fill: none; stroke: currentColor; stroke-linecap: round; stroke-linejoin: round; stroke-width: 2;"/>
        <path id="primary-2" data-name="primary" d="M14,13.29A6.91,6.91,0,0,0,12,13H10a7,7,0,0,0-7,7,1,1,0,0,0,1,1H14" style="fill: none; stroke: currentColor; stroke-linecap: round; stroke-linejoin: round; stroke-width: 2;"/>
    </symbol>

    <symbol id="icon-format" fill="none" x="0" y="0" viewBox="0 0 32 32">
        <path d="M29.21 11.84a3.92 3.92 0 0 1-3.09-5.3 1.84 1.84 0 0 0-.55-2.07 14.75 14.75 0 0 0-4.4-2.55 1.85 1.85 0 0 0-2.09.58 3.91 3.91 0 0 1-6.16 0 1.85 1.85 0 0 0-2.09-.58 14.82 14.82 0 0 0-4.1 2.3 1.86 1.86 0 0 0-.58 2.13 3.9 3.9 0 0 1-3.25 5.36 1.85 1.85 0 0 0-1.62 1.49A14.14 14.14 0 0 0 1 16a14.32 14.32 0 0 0 .19 2.35 1.85 1.85 0 0 0 1.63 1.55A3.9 3.9 0 0 1 6 25.41a1.82 1.82 0 0 0 .51 2.18 14.86 14.86 0 0 0 4.36 2.51 2 2 0 0 0 .63.11 1.84 1.84 0 0 0 1.5-.78 3.87 3.87 0 0 1 3.2-1.68 3.92 3.92 0 0 1 3.14 1.58 1.84 1.84 0 0 0 2.16.61 15 15 0 0 0 4-2.39 1.85 1.85 0 0 0 .54-2.11 3.9 3.9 0 0 1 3.13-5.39 1.85 1.85 0 0 0 1.57-1.52A14.5 14.5 0 0 0 31 16a14.35 14.35 0 0 0-.25-2.67 1.83 1.83 0 0 0-1.54-1.49zM21 16a5 5 0 1 1-5-5 5 5 0 0 1 5 5z" fill="currentColor" opacity="1"/>
    </symbol>
</svg>